<svg 
 xmlns="http://www.w3.org/2000/svg"
 xmlns:xlink="http://www.w3.org/1999/xlink"
 width="164px" height="147px">
<path fill-rule="evenodd" stroke-width="0px" stroke-linecap="butt" stroke-linejoin="miter"
 d="M152.1000,74.1000 C138.773,89.227 87.1000,143.1000 87.1000,143.1000 C87.098,144.806 86.090,145.479 85.000,145.1000 C84.045,146.457 83.039,146.792 81.1000,146.1000 C80.961,146.792 79.955,146.457 78.1000,145.1000 C77.910,145.479 76.902,144.806 76.000,143.1000 C76.000,143.1000 25.227,89.227 11.000,74.1000 C-0.786,63.214 -3.541,37.949 5.544,22.086 C8.378,17.138 14.247,11.557 18.940,8.095 C26.421,2.577 35.536,-0.148 44.1000,0.000 C50.506,0.011 55.910,1.013 61.000,2.1000 C69.568,6.344 76.801,12.307 81.1000,20.000 C87.199,12.307 94.432,6.344 102.1000,2.1000 C108.090,1.013 113.494,0.011 118.1000,0.000 C128.464,-0.148 137.579,2.577 145.060,8.095 C149.753,11.557 155.622,17.138 158.456,22.086 C167.541,37.949 164.786,63.214 152.1000,74.1000 Z"/>
</svg>