<svg xmlns="http://www.w3.org/2000/svg" viewBox="0 0 60.63 64"><g id="ff2625b1-b879-4b53-9d0f-3f6f0bc53dff" data-name="Layer 2"><g id="f2e8cd3a-6a16-4614-9ad4-e46d0a62fbd9" data-name="calendar_solid"><path d="M0,55.58A8.42,8.42,0,0,0,8.42,64H52.21a8.42,8.42,0,0,0,8.42-8.42V16.84H0Zm43.79-32h8.42V32H43.79Zm0,11.79h8.42v8.42H43.79Zm0,11.79h8.42v8.42H43.79ZM32,23.58h8.42V32H32Zm0,11.79h8.42v8.42H32Zm0,11.79h8.42v8.42H32ZM20.21,23.58h8.42V32H20.21Zm0,11.79h8.42v8.42H20.21Zm0,11.79h8.42v8.42H20.21ZM8.42,23.58h8.42V32H8.42Zm0,11.79h8.42v8.42H8.42Zm0,11.79h8.42v8.42H8.42Z"/><path d="M52.21,3.37H8.42A8.42,8.42,0,0,0,0,11.79v1.68H60.63V11.79A8.42,8.42,0,0,0,52.21,3.37Z"/><rect x="10.95" width="3.37" height="8.42"/><rect x="28.63" width="3.37" height="8.42"/><rect x="46.32" width="3.37" height="8.42"/></g></g></svg>