<svg id="ba275ae8-c983-494d-b4d1-601caccbc589" data-name="Solid" xmlns="http://www.w3.org/2000/svg" viewBox="0 0 64 64"><path d="M32,0A32,32,0,1,0,64,32,32,32,0,0,0,32,0Zm5,51.73a1.41,1.41,0,0,1-.45,1.08,1.49,1.49,0,0,1-1.05.42H28.76a1.44,1.44,0,0,1-1.5-1.5v-6a1.49,1.49,0,0,1,.42-1,1.41,1.41,0,0,1,1.08-.45h6.72a1.54,1.54,0,0,1,1.5,1.5Zm10.5-29.88a9.52,9.52,0,0,1-.93,4,16.88,16.88,0,0,1-2.1,3.27q-1.23,1.5-2.58,2.91a27.92,27.92,0,0,0-2.4,2.85,10.15,10.15,0,0,0-1.53,3q-.12.48-.21.93t-.15.93a3.68,3.68,0,0,1-.66,1.17,1.4,1.4,0,0,1-1.08.39H28.76a1.23,1.23,0,0,1-1.2-1.2V38.41a10.48,10.48,0,0,1,1.35-4,18.66,18.66,0,0,1,2.46-3.27q1.41-1.5,2.79-2.79a18.48,18.48,0,0,0,2.34-2.61,4.86,4.86,0,0,0,1-2.64A3.62,3.62,0,0,0,37,20.5a4.85,4.85,0,0,0-2-1.62,6.68,6.68,0,0,0-2.73-.57A6.51,6.51,0,0,0,28,19.6a6.8,6.8,0,0,0-2.19,3.93,2.38,2.38,0,0,1-.66,1,1.69,1.69,0,0,1-1.14.36H17.72a1.32,1.32,0,0,1-1-.42,1.46,1.46,0,0,1-.42-1.08,11.51,11.51,0,0,1,1.14-4.68,12.61,12.61,0,0,1,3.18-4.11,15.83,15.83,0,0,1,5.1-2.91,20.51,20.51,0,0,1,7-1.08,20.43,20.43,0,0,1,7.17,1.08,12.72,12.72,0,0,1,4.56,2.79,10.18,10.18,0,0,1,2.43,3.66A8.87,8.87,0,0,1,47.48,21.85Z"/></svg>