<?xml version="1.0" encoding="UTF-8"?><svg xmlns="http://www.w3.org/2000/svg" viewBox="0 0 602.77 400"><g id="a"/><g id="b"><g id="c"><g id="d"><g><rect width="602.77" height="400" fill="#121212"/><g><path d="M119.49,290c-.8-.87-1.2-1.97-1.2-3.3V108.9c0-1.33,.4-2.43,1.2-3.3,.8-.87,1.87-1.3,3.2-1.3h36c1.33,0,2.43,.43,3.3,1.3,.87,.87,1.3,1.97,1.3,3.3v7c0,1.33-.43,2.43-1.3,3.3-.87,.87-1.97,1.3-3.3,1.3h-22.6v153.8h22.6c1.33,0,2.43,.43,3.3,1.3,.87,.87,1.3,1.96,1.3,3.3v7.8c0,1.33-.43,2.43-1.3,3.3-.87,.87-1.97,1.3-3.3,1.3h-36c-1.33,0-2.4-.43-3.2-1.3Z" fill="#fff"/><path d="M180.79,266.6c-.87-.87-1.3-1.97-1.3-3.3V132.7c0-1.47,.43-2.63,1.3-3.5s1.97-1.3,3.3-1.3h10c2.13,0,3.87,1.07,5.2,3.2l42.2,80.8,42.6-80.8c.27-.8,.83-1.53,1.7-2.2,.87-.67,1.97-1,3.3-1h9.8c1.47,0,2.63,.43,3.5,1.3,.87,.87,1.3,2.03,1.3,3.5v130.6c0,1.33-.47,2.43-1.4,3.3-.93,.87-2.07,1.3-3.4,1.3h-9.8c-1.33,0-2.43-.43-3.3-1.3-.87-.87-1.3-1.97-1.3-3.3v-98.4l-33.4,65.2c-1.33,2.8-3.47,4.2-6.4,4.2h-6.2c-2.93,0-5.07-1.4-6.4-4.2l-33.6-65.2v98.4c0,1.33-.43,2.43-1.3,3.3s-1.97,1.3-3.3,1.3h-9.8c-1.33,0-2.43-.43-3.3-1.3Z" fill="#fff"/><path d="M332.59,266.6c-.87-.87-1.3-1.97-1.3-3.3V132.7c0-1.47,.43-2.63,1.3-3.5s1.97-1.3,3.3-1.3h45.4c20.13,0,34.67,4.5,43.6,13.5,8.93,9,13.6,22.57,14,40.7,.13,3.87,.2,9.07,.2,15.6s-.07,11.8-.2,15.8c-.4,12.67-2.5,22.97-6.3,30.9-3.8,7.93-9.77,13.83-17.9,17.7-8.13,3.87-18.93,5.8-32.4,5.8h-46.4c-1.33,0-2.43-.43-3.3-1.3Zm48.7-15.7c9.2,0,16.5-1.27,21.9-3.8,5.4-2.53,9.33-6.57,11.8-12.1,2.47-5.53,3.83-12.97,4.1-22.3,.27-8,.4-13,.4-15,0-2.13-.13-7.07-.4-14.8-.27-13.2-3.4-22.83-9.4-28.9-6-6.07-15.8-9.1-29.4-9.1h-29.4v106h30.4Z" fill="#ffd34e"/><path d="M447.79,290c-.87-.87-1.3-1.97-1.3-3.3v-7.8c0-1.33,.43-2.43,1.3-3.3,.87-.87,1.97-1.3,3.3-1.3h22.8V120.5h-22.8c-1.33,0-2.43-.43-3.3-1.3-.87-.87-1.3-1.97-1.3-3.3v-7c0-1.33,.43-2.43,1.3-3.3s1.97-1.3,3.3-1.3h36c1.33,0,2.43,.43,3.3,1.3,.87,.87,1.3,1.97,1.3,3.3v177.8c0,1.33-.43,2.43-1.3,3.3-.87,.87-1.97,1.3-3.3,1.3h-36c-1.33,0-2.43-.43-3.3-1.3Z" fill="#ffd34e"/></g></g></g></g></g></svg>